<svg width="36" height="39" viewBox="0 0 36 39" fill="none" xmlns="http://www.w3.org/2000/svg">
<path fill-rule="evenodd" clip-rule="evenodd" d="M5.85 11.7C5.85 8.59697 7.08267 5.62103 9.27685 3.42685C11.471 1.23267 14.447 0 17.55 0C20.653 0 23.629 1.23267 25.8232 3.42685C28.0173 5.62103 29.25 8.59697 29.25 11.7H31.2C32.2343 11.7 33.2263 12.1109 33.9577 12.8423C34.6891 13.5737 35.1 14.5657 35.1 15.6V35.1C35.1 36.1343 34.6891 37.1263 33.9577 37.8577C33.2263 38.5891 32.2343 39 31.2 39H3.9C2.86566 39 1.87368 38.5891 1.14228 37.8577C0.410892 37.1263 0 36.1343 0 35.1V15.6C0 14.5657 0.410892 13.5737 1.14228 12.8423C1.87368 12.1109 2.86566 11.7 3.9 11.7H5.85ZM17.55 3.9C19.6187 3.9 21.6026 4.72178 23.0654 6.18457C24.5282 7.64735 25.35 9.63131 25.35 11.7H9.75C9.75 9.63131 10.5718 7.64735 12.0346 6.18457C13.4973 4.72178 15.4813 3.9 17.55 3.9ZM21.45 23.4C21.45 24.0846 21.2698 24.7571 20.9275 25.3499C20.5852 25.9428 20.0929 26.4351 19.5 26.7774V29.25C19.5 29.7672 19.2946 30.2632 18.9289 30.6289C18.5632 30.9946 18.0672 31.2 17.55 31.2C17.0328 31.2 16.5368 30.9946 16.1711 30.6289C15.8054 30.2632 15.6 29.7672 15.6 29.25V26.7774C14.8565 26.3481 14.2755 25.6855 13.947 24.8924C13.6185 24.0992 13.5609 23.2198 13.7831 22.3906C14.0053 21.5614 14.4949 20.8286 15.1759 20.306C15.857 19.7833 16.6915 19.5 17.55 19.5C18.5843 19.5 19.5763 19.9109 20.3077 20.6423C21.0391 21.3737 21.45 22.3657 21.45 23.4Z" fill="#252525"/>
</svg>
